<svg width="1893" height="1087" xmlns="http://www.w3.org/2000/svg" xmlns:xlink="http://www.w3.org/1999/xlink" xml:space="preserve" overflow="hidden"><defs><clipPath id="clip0"><rect x="925" y="760" width="1893" height="1087"/></clipPath></defs><g clip-path="url(#clip0)" transform="translate(-925 -760)"><rect x="930" y="763" width="1884" height="1084" fill="#FFFFFF" fill-opacity="1"/><rect x="1049.5" y="1493.5" width="534" height="192" stroke="#595959" stroke-width="4.58333" stroke-linecap="butt" stroke-linejoin="miter" stroke-miterlimit="8" stroke-opacity="1" fill="none"/><text fill="#262626" fill-opacity="1" font-family="Avenir Book,Avenir Book_MSFontService,sans-serif" font-style="normal" font-variant="normal" font-weight="400" font-stretch="normal" font-size="83" text-anchor="start" direction="ltr" writing-mode="lr-tb" unicode-bidi="normal" text-decoration="none" transform="matrix(1 0 0 1 1287.71 1615)">A</text><text fill="#262626" fill-opacity="1" font-family="NanumGothic,NanumGothic_MSFontService,sans-serif" font-style="normal" font-variant="normal" font-weight="400" font-stretch="normal" font-size="83" text-anchor="start" direction="ltr" writing-mode="lr-tb" unicode-bidi="normal" text-decoration="none" transform="matrix(1 0 0 1 1720.54 1538)">주다</text><rect x="2013.5" y="1493.5" width="534" height="192" stroke="#595959" stroke-width="4.58333" stroke-linecap="butt" stroke-linejoin="miter" stroke-miterlimit="8" stroke-opacity="1" fill="none"/><text fill="#262626" fill-opacity="1" font-family="Avenir Book,Avenir Book_MSFontService,sans-serif" font-style="normal" font-variant="normal" font-weight="400" font-stretch="normal" font-size="83" text-anchor="start" direction="ltr" writing-mode="lr-tb" unicode-bidi="normal" text-decoration="none" transform="matrix(1 0 0 1 2253.63 1615)">B</text><rect x="2013" y="982" width="534" height="193" stroke="#4472C4" stroke-width="5.72917" stroke-linecap="butt" stroke-linejoin="miter" stroke-miterlimit="8" stroke-opacity="1" fill="none"/><text fill="#4472C4" fill-opacity="1" font-family="Avenir Book,Avenir Book_MSFontService,sans-serif" font-style="normal" font-variant="normal" font-weight="400" font-stretch="normal" font-size="83" text-anchor="start" direction="ltr" writing-mode="lr-tb" unicode-bidi="normal" text-decoration="none" transform="matrix(1 0 0 1 2250.77 1104)">C</text><text fill="#262626" fill-opacity="1" font-family="NanumGothic,NanumGothic_MSFontService,sans-serif" font-style="normal" font-variant="normal" font-weight="400" font-stretch="normal" font-size="83" text-anchor="start" direction="ltr" writing-mode="lr-tb" unicode-bidi="normal" text-decoration="none" transform="matrix(1 0 0 1 1720.54 1699)">주다</text><text fill="#262626" fill-opacity="1" font-family="Avenir Book,Avenir Book_MSFontService,sans-serif" font-style="normal" font-variant="normal" font-weight="400" font-stretch="normal" font-size="83" text-anchor="start" direction="ltr" writing-mode="lr-tb" unicode-bidi="normal" text-decoration="none" transform="matrix(1 0 0 1 2430.4 1280)">C:</text><text fill="#262626" fill-opacity="1" font-family="NanumGothic,NanumGothic_MSFontService,sans-serif" font-style="normal" font-variant="normal" font-weight="400" font-stretch="normal" font-size="83" text-anchor="start" direction="ltr" writing-mode="lr-tb" unicode-bidi="normal" text-decoration="none" transform="matrix(1 0 0 1 2511.18 1280)">주다</text><text fill="#262626" fill-opacity="1" font-family="Avenir Book,Avenir Book_MSFontService,sans-serif" font-style="normal" font-variant="normal" font-weight="400" font-stretch="normal" font-size="83" text-anchor="start" direction="ltr" writing-mode="lr-tb" unicode-bidi="normal" text-decoration="none" transform="matrix(1 0 0 1 2393.3 1423)">B:</text><text fill="#262626" fill-opacity="1" font-family="NanumGothic,NanumGothic_MSFontService,sans-serif" font-style="normal" font-variant="normal" font-weight="400" font-stretch="normal" font-size="83" text-anchor="start" direction="ltr" writing-mode="lr-tb" unicode-bidi="normal" text-decoration="none" transform="matrix(1 0 0 1 2468.35 1423)">주시다</text><text fill="#262626" fill-opacity="1" font-family="NanumGothic,NanumGothic_MSFontService,sans-serif" font-style="normal" font-variant="normal" font-weight="400" font-stretch="normal" font-size="83" text-anchor="start" direction="ltr" writing-mode="lr-tb" unicode-bidi="normal" text-decoration="none" transform="matrix(1 0 0 1 1895.25 1363)">드리다</text><path d="M1606.42 1587.78 1989.93 1587.78 1989.93 1591.22 1606.42 1591.22ZM1611 1612.42 1583.5 1589.5 1611 1566.58ZM1985.34 1566.58 2012.84 1589.5 1985.34 1612.42Z" fill="#595959" fill-rule="nonzero" fill-opacity="1"/><path d="M2193.22 1198.42 2193.22 1493.71 2189.78 1493.71 2189.78 1198.42ZM2168.58 1203 2191.5 1175.5 2214.42 1203Z" fill="#595959" fill-rule="nonzero" fill-opacity="1"/><path d="M2357.22 1175.5 2357.22 1470.8 2353.78 1470.8 2353.78 1175.5ZM2378.42 1466.21 2355.5 1493.71 2332.58 1466.21Z" fill="#595959" fill-rule="nonzero" fill-opacity="1"/><text fill="#4472C4" fill-opacity="1" font-family="NanumGothic,NanumGothic_MSFontService,sans-serif" font-style="normal" font-variant="normal" font-weight="400" font-stretch="normal" font-size="83" text-anchor="start" direction="ltr" writing-mode="lr-tb" unicode-bidi="normal" text-decoration="none" transform="matrix(1 0 0 1 2160.74 938)">윗사람</text></g></svg>