<svg width="2759" height="1898" xmlns="http://www.w3.org/2000/svg" xmlns:xlink="http://www.w3.org/1999/xlink" xml:space="preserve" overflow="hidden"><defs><clipPath id="clip0"><rect x="889" y="82" width="2759" height="1898"/></clipPath></defs><g clip-path="url(#clip0)" transform="translate(-889 -82)"><rect x="890" y="85.9999" width="2757" height="1893" fill="#FFFFFF" fill-opacity="1"/><rect x="1049.5" y="496.5" width="534" height="193" stroke="#595959" stroke-width="4.58333" stroke-linecap="butt" stroke-linejoin="miter" stroke-miterlimit="8" stroke-opacity="1" fill="none"/><text fill="#262626" fill-opacity="1" font-family="Avenir Book,Avenir Book_MSFontService,sans-serif" font-style="normal" font-variant="normal" font-weight="400" font-stretch="normal" font-size="83" text-anchor="start" direction="ltr" writing-mode="lr-tb" unicode-bidi="normal" text-decoration="none" transform="matrix(1 0 0 1 1287.71 618)">A</text><rect x="2013.5" y="496.5" width="534" height="193" stroke="#595959" stroke-width="4.58333" stroke-linecap="butt" stroke-linejoin="miter" stroke-miterlimit="8" stroke-opacity="1" fill="none"/><text fill="#262626" fill-opacity="1" font-family="Avenir Book,Avenir Book_MSFontService,sans-serif" font-style="normal" font-variant="normal" font-weight="400" font-stretch="normal" font-size="83" text-anchor="start" direction="ltr" writing-mode="lr-tb" unicode-bidi="normal" text-decoration="none" transform="matrix(1 0 0 1 2253.63 618)">B</text><rect x="2976.5" y="496.5" width="534" height="193" stroke="#595959" stroke-width="4.58333" stroke-linecap="butt" stroke-linejoin="miter" stroke-miterlimit="8" stroke-opacity="1" fill="none"/><text fill="#262626" fill-opacity="1" font-family="Avenir Book,Avenir Book_MSFontService,sans-serif" font-style="normal" font-variant="normal" font-weight="400" font-stretch="normal" font-size="83" text-anchor="start" direction="ltr" writing-mode="lr-tb" unicode-bidi="normal" text-decoration="none" transform="matrix(1 0 0 1 3214.97 618)">A</text><text fill="#262626" fill-opacity="1" font-family="NanumGothic,NanumGothic_MSFontService,sans-serif" font-style="normal" font-variant="normal" font-weight="400" font-stretch="normal" font-size="83" text-anchor="start" direction="ltr" writing-mode="lr-tb" unicode-bidi="normal" text-decoration="none" transform="matrix(1 0 0 1 1111.25 312)">말하는</text><text fill="#262626" fill-opacity="1" font-family="NanumGothic,NanumGothic_MSFontService,sans-serif" font-style="normal" font-variant="normal" font-weight="400" font-stretch="normal" font-size="83" text-anchor="start" direction="ltr" writing-mode="lr-tb" unicode-bidi="normal" text-decoration="none" transform="matrix(1 0 0 1 1366.2 312)">사람</text><text fill="#262626" fill-opacity="1" font-family="NanumGothic,NanumGothic_MSFontService,sans-serif" font-style="normal" font-variant="normal" font-weight="400" font-stretch="normal" font-size="73" text-anchor="start" direction="ltr" writing-mode="lr-tb" unicode-bidi="normal" text-decoration="none" transform="matrix(1 0 0 1 2197.2 241)">듣는</text><text fill="#262626" fill-opacity="1" font-family="NanumGothic,NanumGothic_MSFontService,sans-serif" font-style="normal" font-variant="normal" font-weight="400" font-stretch="normal" font-size="73" text-anchor="start" direction="ltr" writing-mode="lr-tb" unicode-bidi="normal" text-decoration="none" transform="matrix(1 0 0 1 2334.7 241)">/</text><text fill="#262626" fill-opacity="1" font-family="NanumGothic,NanumGothic_MSFontService,sans-serif" font-style="normal" font-variant="normal" font-weight="400" font-stretch="normal" font-size="73" text-anchor="start" direction="ltr" writing-mode="lr-tb" unicode-bidi="normal" text-decoration="none" transform="matrix(1 0 0 1 2063.14 329)">전달하는</text><text fill="#262626" fill-opacity="1" font-family="NanumGothic,NanumGothic_MSFontService,sans-serif" font-style="normal" font-variant="normal" font-weight="400" font-stretch="normal" font-size="73" text-anchor="start" direction="ltr" writing-mode="lr-tb" unicode-bidi="normal" text-decoration="none" transform="matrix(1 0 0 1 2358.76 329)">사람</text><text fill="#262626" fill-opacity="1" font-family="NanumGothic,NanumGothic_MSFontService,sans-serif" font-style="normal" font-variant="normal" font-weight="400" font-stretch="normal" font-size="83" text-anchor="start" direction="ltr" writing-mode="lr-tb" unicode-bidi="normal" text-decoration="none" transform="matrix(1 0 0 1 3077.19 312)">받는</text><text fill="#262626" fill-opacity="1" font-family="NanumGothic,NanumGothic_MSFontService,sans-serif" font-style="normal" font-variant="normal" font-weight="400" font-stretch="normal" font-size="83" text-anchor="start" direction="ltr" writing-mode="lr-tb" unicode-bidi="normal" text-decoration="none" transform="matrix(1 0 0 1 3254.79 312)">사람</text><text fill="#262626" fill-opacity="1" font-family="NanumGothic,NanumGothic_MSFontService,sans-serif" font-style="normal" font-variant="normal" font-weight="600" font-stretch="normal" font-size="83" text-anchor="start" direction="ltr" writing-mode="lr-tb" unicode-bidi="normal" text-decoration="none" transform="matrix(1 0 0 1 2074.88 859)">달라고</text><text fill="#262626" fill-opacity="1" font-family="NanumGothic,NanumGothic_MSFontService,sans-serif" font-style="normal" font-variant="normal" font-weight="600" font-stretch="normal" font-size="83" text-anchor="start" direction="ltr" writing-mode="lr-tb" unicode-bidi="normal" text-decoration="none" transform="matrix(1 0 0 1 2329.83 859)">하다</text><rect x="1049.5" y="999.5" width="534" height="193" stroke="#595959" stroke-width="4.58333" stroke-linecap="butt" stroke-linejoin="miter" stroke-miterlimit="8" stroke-opacity="1" fill="none"/><text fill="#262626" fill-opacity="1" font-family="Avenir Book,Avenir Book_MSFontService,sans-serif" font-style="normal" font-variant="normal" font-weight="400" font-stretch="normal" font-size="83" text-anchor="start" direction="ltr" writing-mode="lr-tb" unicode-bidi="normal" text-decoration="none" transform="matrix(1 0 0 1 1287.71 1121)">A</text><rect x="2013.5" y="999.5" width="534" height="193" stroke="#595959" stroke-width="4.58333" stroke-linecap="butt" stroke-linejoin="miter" stroke-miterlimit="8" stroke-opacity="1" fill="none"/><text fill="#262626" fill-opacity="1" font-family="Avenir Book,Avenir Book_MSFontService,sans-serif" font-style="normal" font-variant="normal" font-weight="400" font-stretch="normal" font-size="83" text-anchor="start" direction="ltr" writing-mode="lr-tb" unicode-bidi="normal" text-decoration="none" transform="matrix(1 0 0 1 2253.63 1121)">B</text><rect x="2976.5" y="999.5" width="534" height="193" stroke="#595959" stroke-width="4.58333" stroke-linecap="butt" stroke-linejoin="miter" stroke-miterlimit="8" stroke-opacity="1" fill="none"/><text fill="#262626" fill-opacity="1" font-family="Avenir Book,Avenir Book_MSFontService,sans-serif" font-style="normal" font-variant="normal" font-weight="400" font-stretch="normal" font-size="83" text-anchor="start" direction="ltr" writing-mode="lr-tb" unicode-bidi="normal" text-decoration="none" transform="matrix(1 0 0 1 3212.68 1121)">D</text><text fill="#262626" fill-opacity="1" font-family="NanumGothic,NanumGothic_MSFontService,sans-serif" font-style="normal" font-variant="normal" font-weight="400" font-stretch="normal" font-size="83" text-anchor="start" direction="ltr" writing-mode="lr-tb" unicode-bidi="normal" text-decoration="none" transform="matrix(1 0 0 1 2074.88 1360)">주라고</text><text fill="#262626" fill-opacity="1" font-family="NanumGothic,NanumGothic_MSFontService,sans-serif" font-style="normal" font-variant="normal" font-weight="400" font-stretch="normal" font-size="83" text-anchor="start" direction="ltr" writing-mode="lr-tb" unicode-bidi="normal" text-decoration="none" transform="matrix(1 0 0 1 2329.83 1360)">하다</text><rect x="1049.5" y="1502.5" width="534" height="193" stroke="#595959" stroke-width="4.58333" stroke-linecap="butt" stroke-linejoin="miter" stroke-miterlimit="8" stroke-opacity="1" fill="none"/><text fill="#262626" fill-opacity="1" font-family="Avenir Book,Avenir Book_MSFontService,sans-serif" font-style="normal" font-variant="normal" font-weight="400" font-stretch="normal" font-size="83" text-anchor="start" direction="ltr" writing-mode="lr-tb" unicode-bidi="normal" text-decoration="none" transform="matrix(1 0 0 1 1287.71 1624)">A</text><rect x="2013.5" y="1502.5" width="534" height="193" stroke="#595959" stroke-width="4.58333" stroke-linecap="butt" stroke-linejoin="miter" stroke-miterlimit="8" stroke-opacity="1" fill="none"/><text fill="#262626" fill-opacity="1" font-family="Avenir Book,Avenir Book_MSFontService,sans-serif" font-style="normal" font-variant="normal" font-weight="400" font-stretch="normal" font-size="83" text-anchor="start" direction="ltr" writing-mode="lr-tb" unicode-bidi="normal" text-decoration="none" transform="matrix(1 0 0 1 2253.63 1624)">B</text><rect x="2976" y="1502" width="534" height="193" stroke="#4472C4" stroke-width="5.72917" stroke-linecap="butt" stroke-linejoin="miter" stroke-miterlimit="8" stroke-opacity="1" fill="none"/><text fill="#4472C4" fill-opacity="1" font-family="Avenir Book,Avenir Book_MSFontService,sans-serif" font-style="normal" font-variant="normal" font-weight="400" font-stretch="normal" font-size="83" text-anchor="start" direction="ltr" writing-mode="lr-tb" unicode-bidi="normal" text-decoration="none" transform="matrix(1 0 0 1 3214.4 1624)">C</text><text fill="#262626" fill-opacity="1" font-family="NanumGothic,NanumGothic_MSFontService,sans-serif" font-style="normal" font-variant="normal" font-weight="400" font-stretch="normal" font-size="83" text-anchor="start" direction="ltr" writing-mode="lr-tb" unicode-bidi="normal" text-decoration="none" transform="matrix(1 0 0 1 2036.21 1863)">드리라고</text><text fill="#262626" fill-opacity="1" font-family="NanumGothic,NanumGothic_MSFontService,sans-serif" font-style="normal" font-variant="normal" font-weight="400" font-stretch="normal" font-size="83" text-anchor="start" direction="ltr" writing-mode="lr-tb" unicode-bidi="normal" text-decoration="none" transform="matrix(1 0 0 1 2368.5 1863)">하다</text><path d="M1583.89 591.825 1597.29 594.91 1596.51 598.26 1583.11 595.175ZM1607.33 597.224 1620.73 600.308 1619.96 603.658 1606.56 600.573ZM1630.78 602.622 1644.18 605.707 1643.41 609.057 1630.01 605.972ZM1654.23 608.02 1667.63 611.105 1666.86 614.455 1653.46 611.37ZM1677.68 613.419 1691.08 616.504 1690.31 619.853 1676.91 616.769ZM1701.13 618.817 1714.53 621.902 1713.76 625.252 1700.36 622.167ZM1724.58 624.215 1737.98 627.3 1737.21 630.65 1723.81 627.565ZM1748.03 629.614 1761.43 632.699 1760.66 636.049 1747.26 632.964ZM1771.48 635.012 1784.88 638.097 1784.11 641.447 1770.71 638.362ZM1794.93 640.411 1808.33 643.495 1807.56 646.845 1794.16 643.76ZM1818.38 645.809 1831.78 648.894 1831.01 652.244 1817.61 649.159ZM1841.83 651.207 1855.23 654.292 1854.45 657.642 1841.05 654.557ZM1865.28 656.606 1878.67 659.69 1877.9 663.04 1864.5 659.956ZM1888.72 662.004 1902.12 665.089 1901.35 668.439 1887.95 665.354ZM1912.17 667.402 1925.57 670.487 1924.8 673.837 1911.4 670.752ZM1935.62 672.801 1949.02 675.886 1948.25 679.235 1934.85 676.151ZM1959.07 678.199 1972.47 681.284 1971.7 684.634 1958.3 681.549ZM1982.52 683.598 1995.92 686.682 1995.15 690.032 1981.75 686.947ZM2005.97 688.996 2019.37 692.081 2018.6 695.431 2005.2 692.346ZM2029.42 694.394 2042.82 697.479 2042.05 700.829 2028.65 697.744ZM2052.87 699.793 2066.27 702.877 2065.5 706.227 2052.1 703.143ZM2076.32 705.191 2089.72 708.276 2088.95 711.626 2075.55 708.541ZM2099.77 710.589 2113.17 713.674 2112.39 717.024 2099 713.939ZM2123.22 715.988 2136.62 719.073 2135.84 722.422 2122.44 719.338ZM2146.66 721.386 2160.06 724.471 2159.29 727.821 2145.89 724.736ZM2170.11 726.785 2183.51 729.869 2182.74 733.219 2169.34 730.134ZM2193.56 732.183 2206.96 735.268 2206.19 738.618 2192.79 735.533ZM2217.01 737.581 2230.41 740.666 2229.64 744.016 2216.24 740.931ZM2240.46 742.98 2253.86 746.064 2253.09 749.414 2239.69 746.33ZM2263.91 748.378 2277.31 751.463 2276.54 754.813 2263.14 751.728ZM2287.36 753.776 2300.76 756.861 2299.99 760.211 2286.59 757.126ZM2305.74 736.255 2327.4 764.757 2295.46 780.92Z" fill="#595959" fill-rule="nonzero" fill-opacity="1"/><path d="M1583.89 1094.83 1597.29 1097.91 1596.51 1101.26 1583.11 1098.18ZM1607.33 1100.22 1620.73 1103.31 1619.96 1106.66 1606.56 1103.57ZM1630.78 1105.62 1644.18 1108.71 1643.41 1112.06 1630.01 1108.97ZM1654.23 1111.02 1667.63 1114.11 1666.86 1117.45 1653.46 1114.37ZM1677.68 1116.42 1691.08 1119.5 1690.31 1122.85 1676.91 1119.77ZM1701.13 1121.82 1714.53 1124.9 1713.76 1128.25 1700.36 1125.17ZM1724.58 1127.22 1737.98 1130.3 1737.21 1133.65 1723.81 1130.57ZM1748.03 1132.61 1761.43 1135.7 1760.66 1139.05 1747.26 1135.96ZM1771.48 1138.01 1784.88 1141.1 1784.11 1144.45 1770.71 1141.36ZM1794.93 1143.41 1808.33 1146.5 1807.56 1149.85 1794.16 1146.76ZM1818.38 1148.81 1831.78 1151.89 1831.01 1155.24 1817.61 1152.16ZM1841.83 1154.21 1855.23 1157.29 1854.45 1160.64 1841.05 1157.56ZM1865.28 1159.61 1878.67 1162.69 1877.9 1166.04 1864.5 1162.96ZM1888.72 1165 1902.12 1168.09 1901.35 1171.44 1887.95 1168.35ZM1912.17 1170.4 1925.57 1173.49 1924.8 1176.84 1911.4 1173.75ZM1935.62 1175.8 1949.02 1178.89 1948.25 1182.24 1934.85 1179.15ZM1959.07 1181.2 1972.47 1184.28 1971.7 1187.63 1958.3 1184.55ZM1982.52 1186.6 1995.92 1189.68 1995.15 1193.03 1981.75 1189.95ZM2005.97 1192 2019.37 1195.08 2018.6 1198.43 2005.2 1195.35ZM2029.42 1197.39 2042.82 1200.48 2042.05 1203.83 2028.65 1200.74ZM2052.87 1202.79 2066.27 1205.88 2065.5 1209.23 2052.1 1206.14ZM2076.32 1208.19 2089.72 1211.28 2088.95 1214.63 2075.55 1211.54ZM2099.77 1213.59 2113.17 1216.67 2112.39 1220.02 2099 1216.94ZM2123.22 1218.99 2136.62 1222.07 2135.84 1225.42 2122.44 1222.34ZM2146.66 1224.39 2160.06 1227.47 2159.29 1230.82 2145.89 1227.74ZM2170.11 1229.78 2183.51 1232.87 2182.74 1236.22 2169.34 1233.13ZM2193.56 1235.18 2206.96 1238.27 2206.19 1241.62 2192.79 1238.53ZM2217.01 1240.58 2230.41 1243.67 2229.64 1247.02 2216.24 1243.93ZM2240.46 1245.98 2253.86 1249.06 2253.09 1252.41 2239.69 1249.33ZM2263.91 1251.38 2277.31 1254.46 2276.54 1257.81 2263.14 1254.73ZM2287.36 1256.78 2300.76 1259.86 2299.99 1263.21 2286.59 1260.13ZM2305.74 1239.26 2327.4 1267.76 2295.46 1283.92Z" fill="#595959" fill-rule="nonzero" fill-opacity="1"/><path d="M1583.89 1597.83 1597.29 1600.91 1596.51 1604.26 1583.11 1601.17ZM1607.33 1603.22 1620.73 1606.31 1619.96 1609.66 1606.56 1606.57ZM1630.78 1608.62 1644.18 1611.71 1643.41 1615.06 1630.01 1611.97ZM1654.23 1614.02 1667.63 1617.1 1666.86 1620.45 1653.46 1617.37ZM1677.68 1619.42 1691.08 1622.5 1690.31 1625.85 1676.91 1622.77ZM1701.13 1624.82 1714.53 1627.9 1713.76 1631.25 1700.36 1628.17ZM1724.58 1630.22 1737.98 1633.3 1737.21 1636.65 1723.81 1633.57ZM1748.03 1635.61 1761.43 1638.7 1760.66 1642.05 1747.26 1638.96ZM1771.48 1641.01 1784.88 1644.1 1784.11 1647.45 1770.71 1644.36ZM1794.93 1646.41 1808.33 1649.5 1807.56 1652.85 1794.16 1649.76ZM1818.38 1651.81 1831.78 1654.89 1831.01 1658.24 1817.61 1655.16ZM1841.83 1657.21 1855.23 1660.29 1854.45 1663.64 1841.05 1660.56ZM1865.28 1662.61 1878.67 1665.69 1877.9 1669.04 1864.5 1665.96ZM1888.72 1668 1902.12 1671.09 1901.35 1674.44 1887.95 1671.35ZM1912.17 1673.4 1925.57 1676.49 1924.8 1679.84 1911.4 1676.75ZM1935.62 1678.8 1949.02 1681.89 1948.25 1685.24 1934.85 1682.15ZM1959.07 1684.2 1972.47 1687.28 1971.7 1690.63 1958.3 1687.55ZM1982.52 1689.6 1995.92 1692.68 1995.15 1696.03 1981.75 1692.95ZM2005.97 1695 2019.37 1698.08 2018.6 1701.43 2005.2 1698.35ZM2029.42 1700.39 2042.82 1703.48 2042.05 1706.83 2028.65 1703.74ZM2052.87 1705.79 2066.27 1708.88 2065.5 1712.23 2052.1 1709.14ZM2076.32 1711.19 2089.72 1714.28 2088.95 1717.63 2075.55 1714.54ZM2099.77 1716.59 2113.17 1719.67 2112.39 1723.02 2099 1719.94ZM2123.22 1721.99 2136.62 1725.07 2135.84 1728.42 2122.44 1725.34ZM2146.66 1727.39 2160.06 1730.47 2159.29 1733.82 2145.89 1730.74ZM2170.11 1732.78 2183.51 1735.87 2182.74 1739.22 2169.34 1736.13ZM2193.56 1738.18 2206.96 1741.27 2206.19 1744.62 2192.79 1741.53ZM2217.01 1743.58 2230.41 1746.67 2229.64 1750.02 2216.24 1746.93ZM2240.46 1748.98 2253.86 1752.06 2253.09 1755.41 2239.69 1752.33ZM2263.91 1754.38 2277.31 1757.46 2276.54 1760.81 2263.14 1757.73ZM2287.36 1759.78 2300.76 1762.86 2299.99 1766.21 2286.59 1763.13ZM2305.74 1742.26 2327.4 1770.76 2295.46 1786.92Z" fill="#595959" fill-rule="nonzero" fill-opacity="1"/><text fill="#4472C4" fill-opacity="1" font-family="Avenir Book,Avenir Book_MSFontService,sans-serif" font-style="normal" font-variant="normal" font-weight="400" font-stretch="normal" font-size="55" text-anchor="start" direction="ltr" writing-mode="lr-tb" unicode-bidi="normal" text-decoration="none" transform="matrix(1 0 0 1 1663.59 517)">A</text><text fill="#4472C4" fill-opacity="1" font-family="Avenir Book,Avenir Book_MSFontService,sans-serif" font-style="normal" font-variant="normal" font-weight="400" font-stretch="normal" font-size="55" text-anchor="start" direction="ltr" writing-mode="lr-tb" unicode-bidi="normal" text-decoration="none" transform="matrix(1 0 0 1 1701.4 517)">-</text><text fill="#4472C4" fill-opacity="1" font-family="Avenir Book,Avenir Book_MSFontService,sans-serif" font-style="normal" font-variant="normal" font-weight="400" font-stretch="normal" font-size="55" text-anchor="start" direction="ltr" writing-mode="lr-tb" unicode-bidi="normal" text-decoration="none" transform="matrix(1 0 0 1 1719.74 517)">&gt;</text><text fill="#4472C4" fill-opacity="1" font-family="NanumGothic,NanumGothic_MSFontService,sans-serif" font-style="normal" font-variant="normal" font-weight="400" font-stretch="normal" font-size="55" text-anchor="start" direction="ltr" writing-mode="lr-tb" unicode-bidi="normal" text-decoration="none" transform="matrix(1 0 0 1 1756.4 517)">윗사람</text><text fill="#4472C4" fill-opacity="1" font-family="Avenir Book,Avenir Book_MSFontService,sans-serif" font-style="normal" font-variant="normal" font-weight="400" font-stretch="normal" font-size="55" text-anchor="start" direction="ltr" writing-mode="lr-tb" unicode-bidi="normal" text-decoration="none" transform="matrix(1 0 0 1 1911.09 517)">:</text><text fill="#4472C4" fill-opacity="1" font-family="NanumGothic,NanumGothic_MSFontService,sans-serif" font-style="normal" font-variant="normal" font-weight="400" font-stretch="normal" font-size="55" text-anchor="start" direction="ltr" writing-mode="lr-tb" unicode-bidi="normal" text-decoration="none" transform="matrix(1 0 0 1 1717.72 585)">하시다</text><text fill="#4472C4" fill-opacity="1" font-family="Avenir Book,Avenir Book_MSFontService,sans-serif" font-style="normal" font-variant="normal" font-weight="400" font-stretch="normal" font-size="55" text-anchor="start" direction="ltr" writing-mode="lr-tb" unicode-bidi="normal" text-decoration="none" transform="matrix(1 0 0 1 1666.4 1018)">A</text><text fill="#4472C4" fill-opacity="1" font-family="Avenir Book,Avenir Book_MSFontService,sans-serif" font-style="normal" font-variant="normal" font-weight="400" font-stretch="normal" font-size="55" text-anchor="start" direction="ltr" writing-mode="lr-tb" unicode-bidi="normal" text-decoration="none" transform="matrix(1 0 0 1 1704.21 1018)">-</text><text fill="#4472C4" fill-opacity="1" font-family="Avenir Book,Avenir Book_MSFontService,sans-serif" font-style="normal" font-variant="normal" font-weight="400" font-stretch="normal" font-size="55" text-anchor="start" direction="ltr" writing-mode="lr-tb" unicode-bidi="normal" text-decoration="none" transform="matrix(1 0 0 1 1722.55 1018)">&gt;</text><text fill="#4472C4" fill-opacity="1" font-family="NanumGothic,NanumGothic_MSFontService,sans-serif" font-style="normal" font-variant="normal" font-weight="400" font-stretch="normal" font-size="55" text-anchor="start" direction="ltr" writing-mode="lr-tb" unicode-bidi="normal" text-decoration="none" transform="matrix(1 0 0 1 1759.21 1018)">윗사람</text><text fill="#4472C4" fill-opacity="1" font-family="Avenir Book,Avenir Book_MSFontService,sans-serif" font-style="normal" font-variant="normal" font-weight="400" font-stretch="normal" font-size="55" text-anchor="start" direction="ltr" writing-mode="lr-tb" unicode-bidi="normal" text-decoration="none" transform="matrix(1 0 0 1 1913.9 1018)">:</text><text fill="#4472C4" fill-opacity="1" font-family="NanumGothic,NanumGothic_MSFontService,sans-serif" font-style="normal" font-variant="normal" font-weight="400" font-stretch="normal" font-size="55" text-anchor="start" direction="ltr" writing-mode="lr-tb" unicode-bidi="normal" text-decoration="none" transform="matrix(1 0 0 1 1720.53 1086)">하시다</text><text fill="#4472C4" fill-opacity="1" font-family="Avenir Book,Avenir Book_MSFontService,sans-serif" font-style="normal" font-variant="normal" font-weight="400" font-stretch="normal" font-size="55" text-anchor="start" direction="ltr" writing-mode="lr-tb" unicode-bidi="normal" text-decoration="none" transform="matrix(1 0 0 1 1666.4 1511)">A</text><text fill="#4472C4" fill-opacity="1" font-family="Avenir Book,Avenir Book_MSFontService,sans-serif" font-style="normal" font-variant="normal" font-weight="400" font-stretch="normal" font-size="55" text-anchor="start" direction="ltr" writing-mode="lr-tb" unicode-bidi="normal" text-decoration="none" transform="matrix(1 0 0 1 1704.21 1511)">-</text><text fill="#4472C4" fill-opacity="1" font-family="Avenir Book,Avenir Book_MSFontService,sans-serif" font-style="normal" font-variant="normal" font-weight="400" font-stretch="normal" font-size="55" text-anchor="start" direction="ltr" writing-mode="lr-tb" unicode-bidi="normal" text-decoration="none" transform="matrix(1 0 0 1 1722.55 1511)">&gt;</text><text fill="#4472C4" fill-opacity="1" font-family="NanumGothic,NanumGothic_MSFontService,sans-serif" font-style="normal" font-variant="normal" font-weight="400" font-stretch="normal" font-size="55" text-anchor="start" direction="ltr" writing-mode="lr-tb" unicode-bidi="normal" text-decoration="none" transform="matrix(1 0 0 1 1759.21 1511)">윗사람</text><text fill="#4472C4" fill-opacity="1" font-family="Avenir Book,Avenir Book_MSFontService,sans-serif" font-style="normal" font-variant="normal" font-weight="400" font-stretch="normal" font-size="55" text-anchor="start" direction="ltr" writing-mode="lr-tb" unicode-bidi="normal" text-decoration="none" transform="matrix(1 0 0 1 1913.9 1511)">:</text><text fill="#4472C4" fill-opacity="1" font-family="NanumGothic,NanumGothic_MSFontService,sans-serif" font-style="normal" font-variant="normal" font-weight="400" font-stretch="normal" font-size="55" text-anchor="start" direction="ltr" writing-mode="lr-tb" unicode-bidi="normal" text-decoration="none" transform="matrix(1 0 0 1 1720.53 1579)">하시다</text><path d="M22.5176 5.86208 31.7756 10.8827 34.4979 13.2092 32.2645 15.8224 29.6802 13.6137 29.9775 13.818 20.8789 8.88385ZM42.0987 20.3449 42.2095 20.4537 47.3318 26.1263 51.2037 30.8999 48.5339 33.0653 44.6908 28.3271 44.75 28.3962 39.693 22.7959 39.7647 22.8707 39.6909 22.7983ZM57.4377 39.2134 57.4743 39.2631 62.4935 46.7057 65.0529 50.8205 62.134 52.6361 59.5913 48.5482 59.6258 48.6014 54.6442 41.2146 54.6851 41.2726 54.6696 41.2516ZM70.366 59.7235 72.4223 63.2864 77.0132 71.8169 73.9863 73.4459 69.4074 64.9379 69.4323 64.9825 67.3888 61.4418ZM81.6913 81.0588 82.1945 82.0571 87.0174 92.2373 87.6078 93.559 84.4692 94.961 83.8866 93.6568 83.9026 93.6916 79.097 83.5478 79.1154 83.5856 78.6217 82.6059ZM91.8267 103.008 96.526 114.133 97.1596 115.716 93.9683 116.994 93.3408 115.426 93.3531 115.456 88.6601 104.345ZM100.992 125.29 101.208 125.828 105.837 138.006 105.905 138.194 102.673 139.363 102.61 139.188 102.619 139.215 97.9997 127.064 98.0107 127.092 97.8008 126.568ZM109.413 147.892 110.413 150.656 113.945 160.901 110.695 162.021 107.168 151.789 107.176 151.814 106.181 149.061ZM117.215 170.706 119.394 177.331 121.432 183.817 118.153 184.848 116.118 178.373 116.125 178.395 113.95 171.78ZM124.501 193.685 128.131 205.766 128.45 206.877 125.147 207.827 124.83 206.726 124.836 206.745 121.209 194.675ZM131.301 216.788 132.402 220.616 135 230.051 131.686 230.963 129.09 221.538 129.095 221.556 127.997 217.738ZM137.699 240.023 140.735 251.526 141.194 253.339 137.862 254.182 137.405 252.377 137.409 252.394 134.376 240.9ZM143.724 263.337 144.795 267.568 146.97 276.723 143.626 277.518 141.453 268.375 141.459 268.399 140.392 264.18ZM149.355 286.756 152.533 300.134 149.189 300.928 146.01 287.551ZM154.754 310.236 157.691 323.669 154.332 324.403 151.396 310.97ZM159.893 333.743 160.244 335.35 162.636 347.246 159.266 347.924 156.877 336.042 156.883 336.07 156.535 334.478ZM164.669 357.357 167.379 370.837 164.009 371.514 161.299 358.034ZM169.263 381.003 171.759 394.525 168.378 395.149 165.882 381.628ZM173.631 404.666 174.324 408.423 175.984 418.239 172.595 418.812 170.937 409.009 170.942 409.034 170.25 405.29ZM177.703 428.407 179.996 441.965 176.607 442.538 174.314 428.98ZM181.641 452.17 183.738 465.759 180.341 466.284 178.244 452.694ZM185.311 475.951 186.874 486.079 187.363 489.571 183.959 490.048 183.471 486.568 183.474 486.591 181.913 476.475ZM188.794 499.784 190.702 513.401 187.298 513.878 185.39 500.261ZM192.133 523.613 192.524 526.405 193.897 537.273 190.487 537.704 189.115 526.848 189.118 526.871 188.729 524.091ZM195.19 547.504 196.914 561.146 193.504 561.577 191.78 547.935ZM198.16 571.405 199.704 585.068 196.288 585.454 194.744 571.791ZM200.861 595.316 202.405 608.979 198.989 609.365 197.445 595.702ZM203.439 619.262 204.805 632.944 201.384 633.285 200.019 619.603ZM205.829 643.205 206.739 652.323 207.137 656.915 203.712 657.212 203.315 652.631 203.317 652.653 202.408 643.547ZM208.028 667.189 209.217 680.887 205.792 681.184 204.604 667.486ZM210.108 691.161 210.498 695.648 211.18 704.891 207.751 705.144 207.07 695.912 207.072 695.934 206.684 691.458ZM211.938 715.176 212.95 728.889 209.522 729.142 208.51 715.429ZM213.709 739.173 213.733 739.502 214.549 752.92 211.118 753.128 210.303 739.722 210.304 739.744 210.281 739.426ZM215.175 763.213 216.009 776.938 212.578 777.147 211.744 763.422ZM216.591 787.256 217.246 800.991 213.812 801.154 213.157 787.42ZM217.737 811.292 218.392 825.026 214.959 825.19 214.304 811.455ZM218.793 835.353 219.266 849.095 215.83 849.213 215.357 835.471ZM219.621 859.402 220.094 873.143 216.658 873.262 216.185 859.52ZM220.312 883.477 220.6 897.224 217.163 897.296 216.876 883.549ZM220.815 907.534 221.043 918.451 221.063 921.305 217.626 921.329 217.606 918.487 217.606 918.511 217.378 907.606ZM221.136 931.618 221.233 945.367 217.796 945.391 217.699 931.642ZM221.306 955.68 221.362 963.63 221.322 969.453 217.884 969.429 217.924 963.618 217.924 963.642 217.868 955.704ZM221.25 979.765 221.156 993.515 217.718 993.491 217.813 979.742ZM221.084 1003.83 221.05 1008.81 220.87 1017.6 217.433 1017.53 217.613 1008.75 217.613 1008.77 217.647 1003.8ZM220.659 1027.91 220.378 1041.66 216.941 1041.59 217.222 1027.84ZM220.167 1051.97 220.127 1053.9 219.729 1065.73 216.293 1065.62 216.691 1053.8 216.691 1053.82 216.73 1051.9ZM219.381 1076.04 218.918 1089.78 215.483 1089.67 215.946 1075.92ZM218.553 1100.11 217.912 1113.84 214.478 1113.68 215.12 1099.95ZM217.431 1124.15 216.79 1137.88 213.356 1137.72 213.997 1123.99ZM216.247 1148.2 215.43 1161.93 211.999 1161.72 212.816 1148ZM214.817 1172.22 214 1185.95 210.569 1185.74 211.386 1172.02ZM213.279 1196.26 212.288 1209.97 208.859 1209.72 209.85 1196.01ZM211.545 1220.26 210.724 1231.61 210.522 1233.99 207.097 1233.7 207.298 1231.33 207.297 1231.35 208.116 1220.01ZM209.649 1244.26 208.486 1257.96 205.06 1257.67 206.224 1243.97ZM207.613 1268.24 207.044 1274.93 206.358 1281.95 202.937 1281.62 203.622 1274.61 203.62 1274.63 204.187 1267.95ZM205.355 1292.22 204.018 1305.9 200.597 1305.57 201.934 1291.88ZM203.015 1316.17 202.871 1317.64 201.52 1329.86 198.103 1329.48 199.453 1317.27 199.451 1317.3 199.594 1315.83ZM200.386 1340.11 198.874 1353.77 195.458 1353.4 196.969 1339.73ZM197.681 1364.04 195.993 1377.68 192.581 1377.26 194.27 1363.62ZM194.726 1387.92 193.126 1400.85 193.025 1401.59 189.62 1401.12 189.719 1400.39 189.716 1400.42 191.315 1387.5ZM191.623 1411.8 189.755 1425.43 186.349 1424.96 188.218 1411.34ZM188.353 1435.64 187.594 1441.18 186.37 1449.27 182.971 1448.76 184.193 1440.67 184.19 1440.7 184.947 1435.18ZM184.83 1459.47 182.776 1473.06 179.377 1472.55 181.431 1458.96ZM181.192 1483.28 178.947 1496.84 175.555 1496.28 177.801 1482.72ZM177.262 1507.02 175.306 1518.83 174.986 1520.6 171.603 1519.99 171.921 1518.23 171.917 1518.26 173.871 1506.46ZM173.152 1530.75 170.706 1544.28 167.323 1543.67 169.769 1530.14ZM168.872 1554.43 168.591 1555.98 166.235 1567.95 162.862 1567.29 165.216 1555.33 165.211 1555.36 165.489 1553.82ZM164.243 1578.07 161.588 1591.56 158.215 1590.9 160.87 1577.41ZM159.429 1601.68 156.55 1615.12 153.189 1614.4 156.067 1600.96ZM154.392 1625.21 154.114 1626.5 151.292 1638.63 147.944 1637.85 150.763 1625.74 150.756 1625.77 151.031 1624.49ZM148.955 1648.68 146.393 1659.68 145.799 1662.08 142.462 1661.26 143.054 1658.87 143.048 1658.89 145.607 1647.9ZM143.319 1672.09 142.419 1675.73 139.91 1685.43 136.582 1684.57 139.089 1674.87 139.084 1674.89 139.982 1671.27ZM137.283 1695.42 134.259 1706.64 133.675 1708.71 130.366 1707.78 130.948 1705.71 130.943 1705.73 133.964 1694.53ZM130.88 1718.64 130.078 1721.49 127.026 1731.86 123.728 1730.89 126.777 1720.52 126.771 1720.54 127.571 1717.71ZM124.037 1741.75 121.523 1749.92 119.922 1754.89 116.65 1753.84 118.248 1748.88 118.241 1748.9 120.752 1740.74ZM116.736 1764.73 112.73 1776.59 112.313 1777.77 109.073 1776.62 109.486 1775.46 109.477 1775.48 113.479 1763.63ZM108.87 1787.49 108.25 1789.24 104.092 1800.41 100.87 1799.21 105.024 1788.06 105.014 1788.08 105.63 1786.34ZM100.335 1810.05 99.1331 1813.12 95.1246 1822.81 91.948 1821.49 95.9504 1811.82 95.9385 1811.85 97.1344 1808.8ZM91.0084 1832.3 89.8231 1835.01 85.2659 1844.84 82.1475 1843.39 86.6968 1833.58 86.6813 1833.62 87.859 1830.92ZM80.6924 1854.12 80.3371 1854.84 75.5331 1863.96 74.1858 1866.35 71.1931 1864.65 72.5279 1862.29 72.5038 1862.34 77.2854 1853.26 77.2646 1853.3 77.6098 1852.6ZM68.9927 1875.32 65.8117 1880.54 61.5703 1886.96 58.7017 1885.07 62.9258 1878.67 62.8922 1878.73 66.0568 1873.53ZM55.4633 1895.46 50.9662 1901.12 46.5882 1906.07 44.0129 1903.8 48.3609 1898.88 48.3026 1898.95 52.7714 1893.32ZM39.0759 1913.45 35.7261 1916.37 27.2301 1921.01 25.5829 1917.99 33.914 1913.44 33.6073 1913.66 36.8154 1910.86ZM18.6649 30.5458 0 0 33.4108-12.8507ZM38.1503 1939.7 4.58333 1927.26 22.8698 1896.49Z" fill="#595959" fill-rule="nonzero" fill-opacity="1" transform="matrix(1.83697e-16 1 1 -1.83697e-16 1318.5 687.5)"/><text fill="#4472C4" fill-opacity="1" font-family="NanumGothic,NanumGothic_MSFontService,sans-serif" font-style="normal" font-variant="normal" font-weight="400" font-stretch="normal" font-size="83" text-anchor="start" direction="ltr" writing-mode="lr-tb" unicode-bidi="normal" text-decoration="none" transform="matrix(1 0 0 1 3127.32 1462)">윗사람</text></g></svg>